<svg xmlns="http://www.w3.org/2000/svg" xmlns:xlink="http://www.w3.org/1999/xlink" width="1584" zoomAndPan="magnify" viewBox="0 0 1188 296.999993" height="396" preserveAspectRatio="xMidYMid meet" version="1.2"><defs><clipPath id="548a80a49e"><path d="M 858 80 L 912 80 L 912 204.898438 L 858 204.898438 Z M 858 80 "/></clipPath><clipPath id="8eb3e93d01"><path d="M 193.855469 91 L 350.910156 91 L 350.910156 204 L 193.855469 204 Z M 193.855469 91 "/></clipPath><clipPath id="5b7f88dab3"><path d="M 374.960938 124.757812 L 454 124.757812 L 454 193.792969 L 374.960938 193.792969 Z M 374.960938 124.757812 "/></clipPath><clipPath id="df7056b8f2"><path d="M 680.3125 140 L 747.621094 140 L 747.621094 159 L 680.3125 159 Z M 680.3125 140 "/></clipPath><clipPath id="6253c794ea"><path d="M 685 161 L 741 161 L 741 179.53125 L 685 179.53125 Z M 685 161 "/></clipPath><clipPath id="12241a3d49"><path d="M 490 101.226562 L 637 101.226562 L 637 201 L 490 201 Z M 490 101.226562 "/></clipPath></defs><g id="8e2a775138"><path style=" stroke:none;fill-rule:nonzero;fill:#0c1225;fill-opacity:1;" d="M 840.320312 187.152344 C 837.660156 187.152344 835.886719 186.265625 834.109375 184.492188 L 798.621094 149 C 795.070312 145.453125 795.070312 140.128906 798.621094 136.578125 L 834.109375 101.089844 C 837.660156 97.539062 842.984375 97.539062 846.53125 101.089844 C 850.082031 104.636719 850.082031 109.960938 846.53125 113.511719 L 817.253906 142.789062 L 846.53125 172.070312 C 850.082031 175.617188 850.082031 180.941406 846.53125 184.492188 C 844.757812 186.265625 842.984375 187.152344 840.320312 187.152344 Z M 840.320312 187.152344 "/><path style=" stroke:none;fill-rule:nonzero;fill:#0c1225;fill-opacity:1;" d="M 929.046875 187.152344 C 926.386719 187.152344 924.609375 186.265625 922.835938 184.492188 C 919.285156 180.941406 919.285156 175.617188 922.835938 172.070312 L 952.113281 142.789062 L 922.835938 113.511719 C 919.285156 109.960938 919.285156 104.636719 922.835938 101.089844 C 926.386719 97.539062 931.707031 97.539062 935.257812 101.089844 L 970.746094 136.578125 C 974.296875 140.128906 974.296875 145.453125 970.746094 149 L 935.257812 184.492188 C 933.484375 186.265625 931.707031 187.152344 929.046875 187.152344 Z M 929.046875 187.152344 "/><g clip-rule="nonzero" clip-path="url(#548a80a49e)"><path style=" stroke:none;fill-rule:nonzero;fill:#0c1225;fill-opacity:1;" d="M 866.9375 204.898438 C 866.050781 204.898438 865.164062 204.898438 864.277344 204.007812 C 859.839844 202.234375 857.179688 197.800781 858.953125 192.476562 L 894.445312 86.003906 C 896.21875 81.570312 900.65625 78.90625 905.976562 80.683594 C 910.414062 82.457031 913.074219 86.894531 911.300781 92.214844 L 875.8125 198.6875 C 874.039062 202.234375 870.488281 204.898438 866.9375 204.898438 Z M 866.9375 204.898438 "/></g><g clip-rule="nonzero" clip-path="url(#8eb3e93d01)"><path style=" stroke:none;fill-rule:evenodd;fill:#0c1225;fill-opacity:1;" d="M 350.589844 191.355469 C 350.507812 190.664062 350.132812 190.085938 349.574219 189.75 C 349.355469 189.332031 349.097656 188.894531 348.921875 188.617188 L 347.351562 186.175781 L 342.945312 179.605469 L 330.0625 159.773438 C 330.4375 158.304688 330.675781 156.714844 330.796875 155.089844 C 331.074219 151.632812 330.933594 147.941406 331.09375 144.785156 C 331.410156 138.96875 331.589844 133.132812 331.628906 127.296875 C 331.667969 121.460938 331.550781 115.625 331.253906 109.789062 L 330.597656 98.15625 C 330.578125 97.835938 330.457031 95.574219 330.320312 94.679688 C 330.0625 92.992188 328.671875 92.535156 328.394531 92.496094 C 323.074219 91.644531 317.574219 91.246094 312.015625 91.085938 C 299.390625 90.75 286.410156 91.703125 274.257812 91.703125 L 218.8125 93.429688 C 218.316406 93.449219 217.859375 93.628906 217.503906 93.90625 C 216.648438 94.203125 216.035156 95.039062 216.054688 96.011719 L 218.316406 143.097656 L 219.289062 154.53125 C 219.308594 154.652344 219.351562 155.207031 219.429688 155.84375 C 219.390625 155.882812 219.351562 155.921875 219.332031 155.960938 C 216.414062 160.367188 213.453125 164.695312 210.378906 168.925781 C 207.300781 173.152344 204.125 177.300781 200.769531 181.371094 L 196.203125 187.128906 C 196.105469 187.269531 195.609375 187.84375 195.210938 188.339844 C 194.417969 188.738281 193.921875 189.570312 194 190.503906 L 194.953125 197.550781 C 195.011719 197.949219 195.050781 199 195.210938 199.65625 C 195.371094 200.289062 195.648438 200.765625 195.90625 201.0625 C 196.164062 201.34375 196.582031 201.640625 197.15625 201.839844 C 197.710938 202.039062 198.605469 202.136719 198.921875 202.195312 L 204.441406 202.871094 L 226.714844 203.289062 L 312.949219 203.683594 C 313.128906 203.683594 313.285156 203.664062 313.445312 203.625 L 338.519531 203.507812 C 340.503906 203.464844 343.0625 203.84375 345.386719 203.824219 C 346.636719 203.824219 347.847656 203.703125 348.878906 203.40625 C 349.21875 203.308594 350.308594 202.851562 350.527344 201.441406 C 350.628906 200.847656 350.648438 199.335938 350.648438 199.160156 Z M 274.320312 96.070312 C 284.722656 96.070312 295.738281 95.355469 306.617188 95.375 C 313.226562 95.394531 319.796875 95.671875 326.132812 96.566406 L 326.289062 98.53125 L 326.925781 110.007812 C 327.203125 115.742188 327.320312 121.5 327.28125 127.277344 C 327.242188 133.035156 327.0625 138.808594 326.765625 144.546875 C 326.585938 147.664062 326.746094 151.335938 326.46875 154.75 C 326.390625 155.703125 326.269531 156.65625 326.109375 157.550781 C 324.859375 157.6875 322.417969 157.96875 322.0625 157.988281 L 302.625 158.027344 L 257.445312 155.742188 C 249.367188 155.585938 240.867188 156.300781 232.589844 156.199219 C 229.632812 156.160156 226.714844 156.042969 223.855469 155.722656 L 223.65625 153.996094 L 222.703125 142.839844 L 220.519531 97.71875 Z M 204.164062 184.152344 C 207.558594 180.003906 210.792969 175.792969 213.929688 171.484375 C 216.691406 167.695312 219.351562 163.824219 221.96875 159.894531 C 225.425781 160.347656 228.976562 160.546875 232.550781 160.585938 C 240.828125 160.667969 249.304688 159.972656 257.367188 160.109375 L 302.546875 162.355469 L 322.4375 162.292969 C 322.835938 162.253906 324.722656 162.15625 326.308594 161.9375 L 339.292969 181.949219 L 343.71875 188.578125 L 343.738281 188.617188 C 327.003906 188.519531 310.269531 188.953125 293.535156 189.214844 L 291.75 181.667969 C 298.777344 181.789062 305.785156 181.925781 312.8125 181.96875 C 318.109375 182.007812 323.390625 181.96875 328.691406 181.847656 C 328.929688 181.925781 329.1875 181.925781 329.425781 181.828125 C 329.464844 181.828125 329.503906 181.828125 329.546875 181.828125 C 330.101562 181.808594 330.558594 181.351562 330.539062 180.777344 C 330.519531 180.261719 330.121094 179.84375 329.605469 179.804688 C 328.273438 177.539062 327.082031 175.316406 326.011719 173.054688 C 324.941406 170.789062 323.96875 168.449219 323.015625 166.027344 C 323.074219 165.90625 323.09375 165.769531 323.09375 165.628906 C 323.074219 165.074219 322.617188 164.617188 322.042969 164.636719 C 316.722656 164.777344 311.402344 164.714844 306.082031 164.578125 C 298.082031 164.359375 290.0625 163.941406 282.082031 163.683594 L 279.003906 163.585938 C 278.84375 163.425781 278.667969 163.308594 278.429688 163.265625 C 278.109375 163.226562 277.832031 163.347656 277.613281 163.523438 L 272.851562 163.386719 C 272.730469 163.289062 272.589844 163.1875 272.433594 163.148438 C 272.117188 163.070312 271.816406 163.167969 271.578125 163.347656 L 243.589844 162.472656 C 243.550781 162.453125 243.527344 162.433594 243.507812 162.414062 C 243.230469 162.292969 242.933594 162.316406 242.695312 162.433594 L 238.167969 162.292969 C 238.070312 162.273438 237.949219 162.273438 237.851562 162.292969 L 226.316406 161.9375 C 226.238281 161.9375 226.160156 161.957031 226.058594 161.976562 C 225.664062 161.9375 225.265625 162.136719 225.046875 162.492188 C 222.746094 166.703125 219.828125 170.554688 217.324219 174.640625 C 216.691406 175.675781 216.09375 176.726562 215.519531 177.796875 C 215.121094 177.898438 214.804688 178.234375 214.746094 178.671875 C 214.683594 179.226562 215.082031 179.742188 215.636719 179.804688 C 223.417969 180.738281 231.179688 181.171875 238.945312 181.371094 C 245.554688 181.550781 252.164062 181.53125 258.796875 181.511719 L 255.359375 189.152344 C 254.011719 189.113281 252.640625 189.09375 251.292969 189.035156 L 210.121094 188.953125 L 200.648438 188.558594 Z M 221.214844 172.757812 L 223.101562 169.660156 C 224.113281 169.796875 225.148438 169.898438 226.179688 169.957031 C 226.257812 169.957031 226.316406 169.957031 226.398438 169.957031 C 225.921875 170.671875 225.445312 171.40625 224.988281 172.121094 C 224.789062 172.417969 224.628906 172.738281 224.433594 173.035156 C 223.339844 172.953125 222.289062 172.855469 221.214844 172.757812 Z M 223.242188 175 C 222.585938 176.109375 221.96875 177.222656 221.375 178.355469 C 220.261719 178.253906 219.132812 178.117188 218.019531 177.996094 L 220.046875 174.683594 C 221.097656 174.800781 222.167969 174.898438 223.242188 175 Z M 227.6875 167.953125 C 227.210938 167.933594 226.753906 167.933594 226.277344 167.914062 C 225.601562 167.871094 224.929688 167.8125 224.253906 167.734375 L 226.535156 163.980469 L 230.167969 164.101562 C 229.355469 165.390625 228.523438 166.683594 227.6875 167.953125 Z M 232.570312 164.179688 L 236.285156 164.300781 C 235.589844 165.589844 234.875 166.859375 234.140625 168.132812 C 233.980469 168.132812 233.820312 168.132812 233.664062 168.109375 C 232.472656 168.050781 231.261719 168.050781 230.070312 168.03125 C 230.902344 166.742188 231.757812 165.472656 232.570312 164.179688 Z M 225.523438 175.160156 C 227.03125 175.257812 228.542969 175.355469 230.070312 175.4375 C 229.496094 176.566406 228.957031 177.71875 228.5 178.890625 C 226.875 178.792969 225.246094 178.671875 223.617188 178.53125 C 224.214844 177.402344 224.847656 176.269531 225.523438 175.160156 Z M 226.714844 173.214844 C 227.390625 172.140625 228.085938 171.089844 228.78125 170.035156 C 230.167969 170.078125 231.578125 170.097656 232.988281 170.136719 C 232.351562 171.226562 231.71875 172.339844 231.121094 173.449219 C 229.632812 173.390625 228.164062 173.292969 226.714844 173.214844 Z M 232.292969 175.535156 C 233.542969 175.574219 234.8125 175.636719 236.066406 175.65625 C 236.261719 175.65625 236.480469 175.65625 236.679688 175.65625 L 235.152344 179.1875 C 233.664062 179.128906 232.15625 179.070312 230.664062 178.988281 C 231.140625 177.839844 231.699219 176.6875 232.292969 175.535156 Z M 236.105469 173.628906 C 235.191406 173.609375 234.277344 173.570312 233.386719 173.550781 C 234 172.4375 234.636719 171.328125 235.289062 170.214844 C 236.523438 170.253906 237.773438 170.292969 239.003906 170.335938 L 237.554688 173.648438 C 237.078125 173.628906 236.601562 173.628906 236.105469 173.628906 Z M 236.441406 168.210938 C 237.175781 166.941406 237.890625 165.667969 238.546875 164.378906 L 241.523438 164.476562 L 239.855469 168.328125 C 238.726562 168.289062 237.59375 168.230469 236.441406 168.210938 Z M 238.882812 175.695312 C 240.273438 175.714844 241.644531 175.734375 243.03125 175.734375 L 241.761719 179.386719 C 240.847656 179.367188 239.9375 179.367188 239.003906 179.347656 C 238.445312 179.328125 237.871094 179.308594 237.316406 179.289062 Z M 239.777344 173.648438 L 241.207031 170.355469 C 242.4375 170.375 243.648438 170.394531 244.878906 170.394531 L 243.726562 173.6875 C 242.417969 173.6875 241.085938 173.667969 239.777344 173.648438 Z M 242.078125 168.328125 L 243.726562 164.519531 L 246.863281 164.617188 L 245.574219 168.347656 C 244.421875 168.367188 243.25 168.347656 242.078125 168.328125 Z M 245.277344 175.753906 C 246.488281 175.753906 247.679688 175.734375 248.890625 175.734375 C 248.433594 176.984375 247.996094 178.234375 247.597656 179.484375 C 246.40625 179.484375 245.238281 179.445312 244.046875 179.425781 Z M 245.972656 173.710938 L 247.082031 170.414062 C 248.371094 170.414062 249.644531 170.394531 250.933594 170.394531 C 250.496094 171.484375 250.082031 172.578125 249.664062 173.6875 C 248.433594 173.6875 247.203125 173.710938 245.972656 173.710938 Z M 247.777344 168.367188 L 249.027344 164.695312 L 253.078125 164.816406 C 252.640625 165.988281 252.183594 167.179688 251.726562 168.347656 C 250.417969 168.347656 249.085938 168.367188 247.777344 168.367188 Z M 251.191406 175.714844 C 252.503906 175.695312 253.8125 175.695312 255.121094 175.675781 C 254.746094 176.945312 254.386719 178.214844 254.070312 179.484375 C 252.640625 179.484375 251.210938 179.484375 249.78125 179.484375 Z M 251.964844 173.648438 L 253.195312 170.375 C 254.386719 170.355469 255.597656 170.355469 256.789062 170.355469 C 256.453125 171.386719 256.113281 172.4375 255.796875 173.472656 C 255.777344 173.511719 255.777344 173.570312 255.757812 173.609375 C 254.488281 173.628906 253.214844 173.648438 251.964844 173.648438 Z M 276.324219 170.472656 L 275.867188 173.53125 L 274.457031 173.550781 C 273.265625 173.53125 272.074219 173.550781 270.90625 173.550781 L 271.699219 170.394531 Z M 272.195312 168.347656 L 272.929688 165.429688 L 277.078125 165.570312 L 276.640625 168.429688 Z M 274.417969 175.574219 L 289.1875 175.417969 C 289.226562 176.867188 289.367188 178.273438 289.683594 179.605469 C 284.421875 179.527344 279.164062 179.445312 273.902344 179.425781 C 270.167969 179.425781 266.4375 179.425781 262.707031 179.445312 C 263.082031 178.136719 263.480469 176.847656 263.898438 175.554688 C 267.390625 175.535156 270.90625 175.535156 274.417969 175.574219 Z M 283.191406 170.59375 L 282.695312 173.390625 C 282.695312 173.410156 282.695312 173.429688 282.695312 173.449219 L 277.933594 173.492188 L 278.386719 170.492188 Z M 278.707031 168.46875 L 279.144531 165.628906 L 282.039062 165.730469 C 282.714844 165.75 283.410156 165.789062 284.085938 165.808594 L 283.589844 168.566406 Z M 287.757812 170.691406 L 289.425781 170.652344 C 289.328125 171.566406 289.246094 172.476562 289.207031 173.410156 L 284.742188 173.449219 L 285.238281 170.652344 Z M 285.632812 168.605469 L 286.128906 165.886719 C 287.441406 165.945312 288.75 165.988281 290.0625 166.046875 C 289.941406 166.878906 289.804688 167.734375 289.683594 168.605469 L 287.777344 168.648438 Z M 270.109375 168.308594 L 266.160156 168.230469 C 266.4375 167.238281 266.695312 166.246094 266.933594 165.253906 L 270.84375 165.371094 Z M 269.59375 170.335938 L 268.78125 173.53125 C 267.371094 173.53125 265.941406 173.511719 264.53125 173.53125 C 264.871094 172.4375 265.226562 171.347656 265.542969 170.273438 Z M 263.996094 168.230469 C 262.527344 168.25 261.058594 168.269531 259.589844 168.289062 C 259.945312 167.21875 260.285156 166.144531 260.621094 165.074219 L 264.828125 165.210938 C 264.570312 166.207031 264.292969 167.21875 263.996094 168.230469 Z M 263.359375 170.273438 C 263.023438 171.367188 262.664062 172.457031 262.308594 173.550781 C 260.839844 173.570312 259.371094 173.589844 257.882812 173.609375 C 258.21875 172.519531 258.578125 171.425781 258.933594 170.335938 C 260.402344 170.316406 261.890625 170.292969 263.359375 170.273438 Z M 257.425781 168.308594 C 256.253906 168.328125 255.101562 168.328125 253.929688 168.347656 L 255.222656 164.894531 L 258.496094 164.996094 C 258.140625 166.085938 257.800781 167.199219 257.425781 168.308594 Z M 257.265625 175.65625 C 258.734375 175.632812 260.183594 175.613281 261.632812 175.613281 C 261.21875 176.90625 260.820312 178.195312 260.441406 179.484375 C 259.03125 179.484375 257.605469 179.503906 256.195312 179.503906 C 256.53125 178.195312 256.890625 176.925781 257.265625 175.65625 Z M 261.058594 181.511719 C 265.324219 181.492188 269.59375 181.472656 273.902344 181.472656 C 279.164062 181.492188 284.421875 181.570312 289.664062 181.648438 L 291.46875 189.253906 C 287.699219 189.3125 283.945312 189.371094 280.175781 189.390625 C 272.652344 189.429688 265.109375 189.410156 257.585938 189.234375 Z M 291.230469 175.417969 L 297.109375 175.355469 C 297.167969 176.824219 297.265625 178.292969 297.464844 179.742188 C 295.558594 179.703125 293.652344 179.683594 291.726562 179.644531 C 291.726562 179.585938 291.726562 179.503906 291.707031 179.445312 C 291.410156 178.175781 291.253906 176.804688 291.230469 175.417969 Z M 297.070312 170.453125 C 297.046875 171.40625 297.046875 172.359375 297.070312 173.3125 L 291.273438 173.371094 C 291.3125 172.4375 291.390625 171.503906 291.492188 170.59375 Z M 291.726562 168.546875 C 291.847656 167.714844 291.964844 166.898438 292.085938 166.125 C 293.753906 166.183594 295.421875 166.246094 297.109375 166.304688 C 297.109375 167 297.089844 167.714844 297.089844 168.410156 Z M 302.945312 170.292969 C 302.945312 171.167969 302.945312 172.0625 302.984375 172.933594 C 302.984375 173.035156 303.003906 173.132812 303.003906 173.234375 L 299.09375 173.273438 C 299.074219 172.300781 299.074219 171.347656 299.09375 170.375 Z M 299.113281 168.347656 C 299.132812 167.695312 299.132812 167.019531 299.132812 166.363281 C 300.421875 166.402344 301.695312 166.464844 302.984375 166.503906 C 302.964844 167.097656 302.945312 167.675781 302.945312 168.25 Z M 303.125 175.296875 C 303.222656 176.804688 303.339844 178.335938 303.519531 179.84375 C 302.191406 179.824219 300.859375 179.804688 299.53125 179.785156 C 299.332031 178.292969 299.230469 176.824219 299.171875 175.335938 Z M 308.601562 170.375 C 308.621094 171.328125 308.660156 172.28125 308.742188 173.234375 C 308.742188 173.253906 308.742188 173.273438 308.742188 173.292969 C 307.769531 173.253906 306.777344 173.210938 305.804688 173.210938 L 305.027344 173.210938 C 305.027344 173.09375 305.007812 172.976562 305.007812 172.855469 C 304.96875 171.980469 304.96875 171.128906 304.96875 170.253906 Z M 304.988281 168.230469 C 304.988281 167.675781 305.007812 167.117188 305.027344 166.582031 C 305.367188 166.582031 305.703125 166.601562 306.042969 166.621094 C 306.894531 166.640625 307.769531 166.640625 308.621094 166.660156 C 308.601562 167.21875 308.582031 167.773438 308.582031 168.347656 Z M 308.941406 175.335938 C 309.097656 176.867188 309.296875 178.394531 309.515625 179.902344 C 308.183594 179.882812 306.875 179.882812 305.546875 179.863281 C 305.367188 178.335938 305.246094 176.804688 305.148438 175.257812 L 305.785156 175.257812 C 306.835938 175.257812 307.886719 175.296875 308.941406 175.335938 Z M 310.863281 173.410156 C 310.84375 173.292969 310.84375 173.191406 310.824219 173.074219 C 310.746094 172.199219 310.726562 171.328125 310.6875 170.453125 L 314.953125 170.574219 C 315.054688 171.605469 315.191406 172.65625 315.332031 173.6875 C 313.84375 173.589844 312.355469 173.492188 310.863281 173.410156 Z M 315.609375 175.734375 C 315.808594 177.144531 315.988281 178.53125 316.144531 179.941406 C 315.054688 179.941406 313.941406 179.941406 312.851562 179.941406 C 312.472656 179.941406 312.097656 179.941406 311.71875 179.921875 C 311.480469 178.433594 311.28125 176.945312 311.101562 175.457031 C 312.59375 175.554688 314.101562 175.65625 315.609375 175.734375 Z M 310.648438 168.410156 C 310.648438 167.832031 310.648438 167.277344 310.667969 166.703125 C 312.035156 166.722656 313.386719 166.742188 314.757812 166.761719 C 314.757812 167.355469 314.777344 167.953125 314.796875 168.546875 Z M 319.339844 173.886719 C 318.6875 173.867188 318.050781 173.828125 317.394531 173.789062 C 317.257812 172.738281 317.117188 171.683594 317.019531 170.632812 L 322.757812 170.8125 C 323.210938 171.863281 323.648438 172.894531 324.144531 173.90625 C 322.558594 173.949219 320.949219 173.949219 319.339844 173.886719 Z M 325.160156 175.914062 C 325.8125 177.222656 326.527344 178.53125 327.261719 179.84375 C 324.246094 179.902344 321.207031 179.941406 318.191406 179.941406 C 318.050781 178.574219 317.871094 177.222656 317.675781 175.851562 C 318.210938 175.871094 318.726562 175.914062 319.261719 175.933594 C 321.246094 176.011719 323.210938 176.011719 325.160156 175.914062 Z M 316.859375 168.585938 C 316.820312 167.972656 316.800781 167.355469 316.800781 166.722656 C 318.230469 166.722656 319.660156 166.703125 321.089844 166.683594 C 321.347656 167.375 321.625 168.050781 321.902344 168.726562 Z M 346.28125 199.21875 L 338.4375 199.160156 L 312.910156 199.277344 C 312.769531 199.277344 312.613281 199.296875 312.472656 199.316406 L 226.792969 198.921875 L 204.777344 198.523438 L 199.796875 197.90625 L 199.398438 197.847656 L 199.28125 196.855469 L 198.746094 192.867188 C 199.160156 192.886719 199.5 192.90625 199.675781 192.90625 L 210.019531 193.34375 L 251.152344 193.421875 C 260.839844 193.757812 270.507812 193.820312 280.195312 193.757812 C 302.210938 193.621094 324.226562 192.824219 346.242188 193.023438 L 346.28125 199 Z M 346.28125 199.21875 "/></g><path style=" stroke:none;fill-rule:evenodd;fill:#0c1225;fill-opacity:1;" d="M 224.453125 114.3125 C 224.511719 122.136719 224.433594 129.9375 224.550781 137.757812 C 224.628906 142.980469 224.808594 148.199219 225.207031 153.421875 C 225.246094 153.976562 225.742188 154.414062 226.296875 154.375 C 226.417969 154.375 226.535156 154.335938 226.636719 154.292969 C 232.292969 154.789062 238.011719 154.929688 243.726562 154.910156 C 252.421875 154.871094 261.136719 154.492188 269.753906 154.414062 C 278.824219 154.335938 287.898438 154.710938 296.96875 154.75 C 300.878906 154.769531 304.789062 154.710938 308.679688 154.550781 L 318.449219 154.136719 C 318.984375 154.117188 320.394531 154.273438 321.328125 154.175781 C 321.804688 154.136719 322.199219 153.996094 322.4375 153.839844 C 322.519531 153.777344 322.996094 153.363281 322.894531 152.585938 C 322.816406 151.992188 322.519531 150.503906 322.519531 150.304688 L 322.617188 141.429688 L 322.617188 113.835938 L 322.855469 106.3125 C 322.875 105.777344 323.132812 104.644531 323.113281 103.871094 C 323.113281 103.476562 323.054688 103.136719 322.933594 102.898438 C 322.875 102.78125 322.539062 102.265625 321.761719 102.242188 C 321.128906 102.222656 319.480469 102.34375 319.382812 102.34375 L 310.726562 102.402344 L 274.0625 102.363281 L 239.5 101.886719 C 236.441406 101.886719 232.789062 101.46875 229.394531 101.53125 C 227.828125 101.570312 226.296875 101.6875 224.910156 102.003906 C 224.867188 102.003906 224.074219 102.382812 224.113281 103.316406 C 224.132812 103.972656 224.234375 105.617188 224.253906 105.777344 Z M 229.453125 103.574219 C 232.828125 103.515625 236.460938 103.910156 239.519531 103.929688 L 274.101562 104.40625 L 310.765625 104.425781 L 319.460938 104.367188 L 321.027344 104.289062 L 320.832031 106.195312 L 320.59375 113.796875 L 320.59375 141.449219 L 320.492188 150.402344 C 320.492188 150.523438 320.652344 151.417969 320.769531 152.070312 L 318.410156 152.050781 L 308.621094 152.46875 C 304.75 152.648438 300.878906 152.6875 297.007812 152.667969 C 287.917969 152.628906 278.84375 152.25 269.753906 152.328125 C 261.136719 152.410156 252.421875 152.785156 243.746094 152.824219 C 238.210938 152.84375 232.691406 152.707031 227.210938 152.25 C 226.875 147.386719 226.714844 142.542969 226.636719 137.699219 C 226.515625 129.898438 226.597656 122.09375 226.535156 114.273438 L 226.316406 105.699219 C 226.316406 105.558594 226.257812 104.585938 226.21875 103.832031 C 227.210938 103.671875 228.324219 103.59375 229.453125 103.574219 Z M 229.453125 103.574219 "/><path style=" stroke:none;fill-rule:nonzero;fill:#0c1225;fill-opacity:1;" d="M 422.945312 192.15625 C 419.714844 191.761719 416.496094 191.4375 413.371094 191.207031 L 412.140625 191.109375 L 401.484375 182.484375 L 401.410156 170.859375 C 397.628906 171.101562 393.964844 171.429688 390.496094 171.820312 L 389.109375 171.964844 L 378.449219 163.332031 L 376.351562 150.542969 L 378.542969 150.21875 C 385.988281 149.101562 393.621094 148.332031 401.253906 147.910156 L 401.109375 127.351562 L 403.070312 127.140625 C 407.746094 126.660156 412.300781 126.296875 416.640625 126.066406 L 418.140625 125.976562 L 428.898438 134.6875 L 428.0625 147.929688 C 432.261719 148.160156 436.347656 148.476562 440.214844 148.878906 L 441.570312 149.035156 L 452.328125 157.746094 L 449.292969 172.851562 L 447.261719 172.5625 C 440.464844 171.601562 433.511719 170.945312 426.609375 170.621094 L 425.226562 192.445312 L 422.9375 192.15625 Z M 422.945312 192.15625 "/><g clip-rule="nonzero" clip-path="url(#5b7f88dab3)"><path style=" stroke:none;fill-rule:nonzero;fill:#0c1225;fill-opacity:1;" d="M 417.734375 127.207031 L 427.65625 135.238281 L 426.78125 149.074219 C 431.234375 149.292969 435.6875 149.621094 440.089844 150.082031 L 441.089844 150.199219 L 451.011719 158.226562 L 448.347656 171.503906 L 447.445312 171.378906 C 440.53125 170.398438 433.472656 169.746094 426.457031 169.417969 L 425.503906 169.378906 L 424.128906 191.101562 L 423.109375 190.976562 C 419.917969 190.582031 416.667969 190.253906 413.464844 190.011719 L 412.621094 189.945312 L 402.695312 181.917969 L 402.609375 169.589844 C 398.515625 169.832031 394.417969 170.167969 390.371094 170.628906 L 389.484375 170.726562 L 379.5625 162.699219 L 377.738281 151.5625 L 378.71875 151.417969 C 386.234375 150.292969 393.917969 149.523438 401.535156 149.113281 L 402.457031 149.0625 L 402.3125 128.449219 L 403.195312 128.351562 C 407.667969 127.890625 412.207031 127.527344 416.695312 127.285156 L 417.734375 127.226562 M 418.523438 124.757812 L 417.589844 124.816406 L 416.550781 124.871094 C 412.195312 125.101562 407.609375 125.46875 402.945312 125.949219 L 402.0625 126.046875 L 399.898438 126.277344 L 399.917969 128.449219 L 400.042969 146.773438 C 392.753906 147.207031 385.46875 147.96875 378.371094 149.023438 L 377.390625 149.167969 L 374.976562 149.523438 L 375.371094 151.9375 L 377.199219 163.074219 L 377.34375 163.976562 L 378.054688 164.554688 L 387.976562 172.582031 L 388.753906 173.207031 L 389.746094 173.101562 L 390.628906 173.003906 C 393.699219 172.660156 396.917969 172.359375 400.234375 172.140625 L 400.304688 181.917969 L 400.304688 183.050781 C 400.304688 183.050781 401.195312 183.765625 401.195312 183.765625 L 411.121094 191.792969 L 411.695312 192.261719 L 412.4375 192.320312 L 413.28125 192.386719 C 416.40625 192.617188 419.609375 192.945312 422.820312 193.339844 L 423.832031 193.464844 L 426.367188 193.78125 L 426.53125 191.226562 L 427.753906 171.859375 C 434.234375 172.207031 440.734375 172.832031 447.117188 173.734375 L 448.011719 173.859375 L 450.261719 174.175781 L 450.714844 171.945312 L 453.378906 158.667969 L 453.664062 157.246094 L 452.53125 156.332031 L 442.609375 148.304688 L 442.0625 147.863281 L 441.359375 147.785156 L 440.359375 147.667969 C 436.839844 147.304688 433.148438 146.996094 429.339844 146.773438 L 430.0625 135.363281 L 430.136719 134.121094 L 429.175781 133.34375 L 419.246094 125.34375 Z M 418.523438 124.757812 "/></g><path style=" stroke:none;fill-rule:nonzero;fill:#ffffff;fill-opacity:1;" d="M 440.078125 150.09375 L 441.078125 150.207031 L 438.417969 163.484375 L 437.511719 163.359375 C 430.601562 162.378906 423.542969 161.726562 416.523438 161.398438 L 415.570312 161.359375 L 414.195312 183.082031 L 413.175781 182.957031 C 409.984375 182.5625 406.734375 182.234375 403.535156 181.996094 L 402.6875 181.925781 L 402.542969 161.1875 L 401.601562 161.207031 C 394.5625 161.339844 387.4375 161.8125 380.429688 162.609375 L 379.542969 162.707031 L 377.71875 151.574219 L 378.699219 151.429688 C 386.21875 150.304688 393.898438 149.535156 401.515625 149.121094 L 402.4375 149.074219 L 402.292969 128.457031 L 403.179688 128.363281 C 407.648438 127.902344 412.1875 127.535156 416.675781 127.296875 L 417.714844 127.238281 L 416.351562 148.785156 L 417.320312 148.785156 C 424.898438 148.878906 432.542969 149.324219 440.0625 150.113281 Z M 440.078125 150.09375 "/><path style=" stroke:none;fill-rule:nonzero;fill:#0c1225;fill-opacity:1;" d="M 736.742188 178.640625 C 736.65625 178.621094 736.601562 178.601562 736.601562 178.601562 C 736.601562 178.601562 736.65625 178.621094 736.742188 178.640625 Z M 736.742188 178.640625 "/><g clip-rule="nonzero" clip-path="url(#df7056b8f2)"><path style=" stroke:none;fill-rule:nonzero;fill:#0c1225;fill-opacity:1;" d="M 746.574219 145.152344 C 745.578125 145.011719 744.59375 144.882812 743.601562 144.753906 C 743.824219 143.089844 744.042969 141.472656 744.253906 140.039062 L 743.886719 140.039062 C 743.886719 140.039062 739.886719 140.019531 739.886719 140.019531 C 730.542969 140.148438 721.160156 139.824219 711.84375 140.820312 C 704.308594 141.261719 696.804688 142.21875 689.410156 143.742188 C 689.160156 143.761719 688.914062 143.78125 688.664062 143.808594 C 687.570312 143.964844 685.832031 143.972656 684.792969 144.324219 L 684.855469 144.746094 C 683.9375 144.96875 683.015625 145.195312 682.105469 145.425781 C 682.171875 145.738281 682.226562 146.070312 682.289062 146.402344 C 681.636719 146.585938 680.976562 146.769531 680.332031 146.964844 C 680.480469 147.542969 680.625 148.167969 680.773438 148.820312 C 680.71875 148.839844 680.671875 148.847656 680.617188 148.867188 C 681.214844 151.277344 681.832031 153.90625 682.503906 156.492188 C 682.519531 156.492188 682.539062 156.492188 682.558594 156.484375 C 682.667969 156.925781 682.777344 157.355469 682.890625 157.761719 L 683 158.210938 L 683.488281 158.128906 C 692.941406 156.492188 702.453125 155.324219 712.015625 154.597656 C 716.46875 154.46875 720.921875 154.441406 725.382812 154.515625 C 731.453125 155.074219 737.496094 155.867188 743.492188 156.914062 L 743.878906 156.980469 L 743.988281 156.59375 L 747.003906 145.796875 L 747.160156 145.234375 Z M 685.03125 145.195312 C 685.152344 145.289062 685.308594 145.410156 685.464844 145.527344 C 685.308594 145.566406 685.152344 145.601562 685.003906 145.648438 C 684.96875 145.453125 684.949219 145.308594 684.929688 145.214844 C 684.96875 145.214844 685.003906 145.214844 685.03125 145.207031 Z M 741.394531 152.65625 C 741.171875 152.636719 740.960938 152.628906 740.742188 152.621094 L 740.933594 151.691406 C 741.074219 151.691406 741.199219 151.691406 741.339844 151.710938 C 741.339844 151.710938 741.46875 151.710938 741.570312 151.71875 L 741.402344 152.65625 Z M 739.167969 142.300781 C 739.140625 142.457031 739.039062 143.089844 738.976562 143.457031 C 734.597656 143.21875 730.199219 143.101562 725.839844 143.089844 C 724.324219 143.007812 722.804688 142.925781 721.289062 142.871094 C 723.734375 142.601562 726.191406 142.390625 728.65625 142.234375 C 732.160156 142.179688 735.664062 142.199219 739.167969 142.289062 Z M 739.757812 143.515625 C 739.792969 143.144531 739.867188 142.476562 739.886719 142.328125 C 740.207031 142.335938 740.519531 142.347656 740.84375 142.363281 C 740.789062 142.621094 740.675781 143.117188 740.585938 143.570312 C 740.308594 143.550781 740.042969 143.53125 739.765625 143.523438 Z M 710.847656 152.703125 C 715.492188 152.289062 720.148438 151.984375 724.8125 151.78125 C 728.304688 151.894531 731.808594 152.078125 735.304688 152.34375 C 727.414062 152.023438 719.421875 152.078125 711.546875 152.675781 C 711.316406 152.675781 711.078125 152.691406 710.847656 152.703125 Z M 741.9375 143.652344 C 741.753906 143.644531 741.570312 143.632812 741.386719 143.613281 C 741.457031 143.164062 741.542969 142.621094 741.585938 142.390625 C 741.78125 142.390625 741.972656 142.402344 742.167969 142.410156 L 741.945312 143.652344 Z M 689.851562 145.480469 C 690.191406 145.445312 690.542969 145.410156 690.882812 145.371094 C 689.464844 145.648438 688.046875 145.941406 686.632812 146.246094 C 686.136719 146.328125 685.640625 146.410156 685.152344 146.492188 C 685.140625 146.410156 685.125 146.335938 685.113281 146.265625 C 686.6875 145.996094 688.269531 145.738281 689.851562 145.480469 Z M 685.132812 146.492188 C 684.527344 146.59375 683.917969 146.6875 683.3125 146.796875 L 683.578125 147.984375 C 683.394531 148.039062 683.21875 148.085938 683.035156 148.140625 C 682.890625 147.664062 682.75 147.175781 682.605469 146.6875 C 683.429688 146.539062 684.257812 146.402344 685.085938 146.265625 L 685.125 146.492188 Z M 683.6875 148.445312 L 684.515625 152.105469 C 684.425781 152.121094 684.34375 152.140625 684.25 152.152344 C 683.902344 150.964844 683.542969 149.757812 683.175781 148.535156 C 683.347656 148.507812 683.523438 148.472656 683.699219 148.445312 Z M 683.597656 153.132812 C 683.972656 153.089844 684.351562 153.050781 684.71875 153.007812 L 684.941406 154 C 685.050781 153.980469 685.167969 153.972656 685.28125 153.953125 C 685.28125 153.960938 685.324219 154.175781 685.324219 154.175781 L 685.398438 154.515625 C 685.398438 154.515625 685.769531 154.460938 685.769531 154.460938 C 685.867188 154.441406 685.96875 154.429688 686.082031 154.421875 C 686.097656 154.523438 686.117188 154.625 686.136719 154.734375 C 685.167969 154.964844 684.195312 155.203125 683.230469 155.441406 C 682.558594 153.355469 681.804688 150.984375 681.105469 148.902344 C 681.59375 148.820312 682.125 148.730469 682.703125 148.628906 C 682.980469 150.117188 683.273438 151.636719 683.585938 153.152344 Z M 686.816406 154.3125 C 687.304688 154.238281 687.800781 154.183594 688.296875 154.109375 C 688.554688 154.089844 688.820312 154.074219 689.078125 154.054688 C 688.34375 154.210938 687.617188 154.375 686.890625 154.550781 C 686.871094 154.46875 686.84375 154.394531 686.824219 154.3125 Z M 742.121094 153.898438 C 742.121094 153.898438 742.101562 154 742.09375 154.007812 C 741.707031 153.960938 741.320312 153.925781 740.933594 153.878906 C 741.328125 153.878906 741.726562 153.898438 742.121094 153.898438 Z M 743.464844 145.796875 C 743.648438 145.8125 743.832031 145.839844 744.015625 145.859375 C 743.90625 146.320312 743.363281 148.644531 742.773438 151.109375 C 742.996094 149.402344 743.222656 147.578125 743.464844 145.796875 Z M 743.507812 140.652344 C 743.492188 140.792969 743.464844 140.929688 743.4375 141.078125 C 742.894531 141.058594 742.339844 141.050781 741.800781 141.039062 C 741.800781 141.039062 741.800781 141.003906 741.800781 141.003906 C 738.699219 140.894531 735.609375 140.820312 732.507812 140.746094 C 736.171875 140.589844 739.875 140.535156 743.5 140.664062 Z M 682.261719 145.527344 C 683.015625 145.445312 683.957031 145.335938 684.929688 145.214844 L 684.996094 145.648438 C 684.15625 145.867188 683.332031 146.097656 682.503906 146.335938 C 682.417969 146.070312 682.347656 145.804688 682.261719 145.527344 Z M 680.488281 147.054688 C 681.113281 146.945312 681.730469 146.84375 682.355469 146.734375 C 682.449219 147.238281 682.546875 147.746094 682.640625 148.261719 C 682.117188 148.417969 681.582031 148.5625 681.058594 148.730469 C 680.867188 148.140625 680.671875 147.570312 680.488281 147.054688 Z M 680.773438 148.949219 C 680.773438 148.949219 680.792969 148.949219 680.800781 148.949219 C 680.820312 149.03125 680.835938 149.117188 680.855469 149.199219 C 680.828125 149.117188 680.800781 149.03125 680.773438 148.949219 Z M 686.335938 155.839844 C 686.367188 155.996094 686.394531 156.160156 686.421875 156.316406 C 686.660156 156.289062 686.898438 156.269531 687.136719 156.242188 C 686.007812 156.484375 684.867188 156.730469 683.734375 156.996094 C 683.660156 156.769531 683.585938 156.546875 683.515625 156.308594 C 684.453125 156.140625 685.390625 155.996094 686.335938 155.839844 Z M 743.242188 155.976562 C 740.382812 155.527344 737.523438 155.128906 734.652344 154.789062 C 737.273438 154.910156 739.886719 155.058594 742.488281 155.242188 L 743.03125 155.277344 L 743.125 154.78125 C 743.125 154.78125 744.59375 146.621094 744.714844 145.960938 C 745.101562 146.007812 745.488281 146.050781 745.875 146.097656 L 743.253906 155.984375 Z M 743.242188 155.976562 "/></g><g clip-rule="nonzero" clip-path="url(#6253c794ea)"><path style=" stroke:none;fill-rule:nonzero;fill:#0c1225;fill-opacity:1;" d="M 726.660156 161.679688 C 722.503906 161.53125 718.335938 161.550781 714.179688 161.699219 C 705.496094 161.613281 696.796875 162.257812 688.203125 163.519531 C 688.121094 163.519531 688.046875 163.519531 687.964844 163.519531 L 687.414062 163.535156 C 687.414062 163.535156 687.421875 163.601562 687.421875 163.621094 C 687.175781 163.65625 686.9375 163.683594 686.6875 163.722656 L 686.199219 163.792969 L 686.328125 164.246094 C 686.382812 164.4375 686.429688 164.632812 686.484375 164.824219 C 686.164062 164.890625 685.839844 164.933594 685.511719 165 L 685.105469 165.074219 C 685.296875 165.707031 685.484375 166.34375 685.675781 166.976562 C 685.675781 166.976562 685.710938 167.097656 685.757812 167.214844 C 686.621094 170.113281 687.460938 173.011719 688.25 175.925781 L 688.316406 176.175781 C 688.316406 176.175781 688.574219 176.148438 688.574219 176.148438 C 692.03125 175.796875 697.070312 175.648438 700.574219 175.449219 C 702.269531 175.335938 704.863281 175.394531 706.574219 175.375 C 709.027344 175.328125 711.503906 175.28125 713.984375 175.234375 C 714.308594 175.253906 714.621094 175.28125 714.941406 175.300781 C 722.164062 176.292969 729.335938 177.703125 736.390625 179.484375 L 736.613281 178.59375 C 736.613281 178.59375 736.832031 177.703125 736.832031 177.703125 C 735.589844 177.398438 734.359375 177.113281 733.105469 176.847656 C 734.6875 177.011719 736.28125 177.160156 737.863281 177.332031 C 737.625 178.226562 737.476562 178.8125 737.476562 178.8125 C 737.503906 178.8125 736.996094 178.695312 736.75 178.628906 C 736.996094 178.695312 737.496094 178.832031 737.496094 178.8125 C 737.496094 178.8125 737.660156 178.226562 737.910156 177.332031 C 737.910156 177.324219 737.910156 177.304688 737.917969 177.296875 C 738 177.003906 738.09375 176.679688 738.195312 176.332031 C 738.222656 176.332031 738.367188 176.359375 738.367188 176.359375 L 738.46875 176.375 L 738.488281 176.265625 C 738.617188 175.484375 738.765625 174.628906 738.910156 173.753906 C 739.683594 171.015625 740.472656 168.171875 740.472656 168.171875 C 740.417969 168.164062 740.375 168.152344 740.316406 168.136719 C 740.335938 168.042969 740.363281 167.941406 740.382812 167.851562 C 740.261719 167.832031 740.144531 167.8125 740.015625 167.785156 C 740.347656 166.101562 740.675781 164.457031 740.972656 163.011719 C 736.234375 162.3125 731.453125 161.835938 726.652344 161.671875 Z M 725.695312 165.128906 C 729.097656 165.117188 732.5 165.164062 735.902344 165.246094 C 735.875 165.550781 735.847656 165.863281 735.820312 166.195312 C 732.464844 165.761719 729.078125 165.402344 725.695312 165.136719 Z M 697.191406 173.800781 C 697.625 173.820312 698.054688 173.839844 698.488281 173.847656 C 696.722656 173.949219 694.957031 174.03125 693.191406 174.097656 C 694.523438 173.984375 695.855469 173.894531 697.191406 173.800781 Z M 691.101562 173.671875 C 691.101562 173.671875 691.09375 173.617188 691.082031 173.589844 C 691.285156 173.589844 691.496094 173.597656 691.699219 173.609375 C 691.496094 173.625 691.296875 173.65625 691.101562 173.671875 Z M 699.589844 172.605469 C 699.207031 172.585938 698.820312 172.570312 698.433594 172.558594 C 699.730469 172.476562 701.015625 172.394531 702.324219 172.328125 C 701.542969 172.402344 700.757812 172.46875 699.976562 172.558594 C 699.847656 172.578125 699.71875 172.597656 699.589844 172.613281 Z M 737.410156 168.625 C 737.613281 168.640625 737.824219 168.660156 738.027344 168.679688 C 737.835938 170.289062 737.640625 171.933594 737.421875 173.625 C 737.082031 173.570312 736.742188 173.515625 736.398438 173.460938 L 737.402344 168.625 Z M 687.707031 165.523438 C 687.652344 165.523438 687.589844 165.53125 687.535156 165.542969 L 687.761719 166.570312 C 687.761719 166.570312 687.71875 166.582031 687.691406 166.589844 C 687.605469 166.222656 687.535156 165.855469 687.449219 165.488281 C 687.535156 165.476562 687.617188 165.46875 687.699219 165.460938 C 687.699219 165.476562 687.699219 165.515625 687.707031 165.53125 Z M 687.976562 167.5 L 688.105469 168.054688 C 688.1875 168.597656 688.1875 168.613281 688.277344 169.15625 C 688.148438 168.613281 688.019531 168.0625 687.902344 167.519531 C 687.929688 167.519531 687.957031 167.519531 687.984375 167.511719 Z M 688.234375 171.492188 C 688.359375 171.492188 688.5 171.492188 688.628906 171.472656 C 688.703125 171.933594 688.875 173.054688 688.875 173.054688 L 688.949219 173.515625 C 689.457031 173.527344 689.960938 173.554688 690.46875 173.5625 C 690.476562 173.617188 690.496094 173.671875 690.503906 173.726562 C 689.84375 173.800781 689.171875 173.882812 688.507812 173.949219 C 687.890625 171.859375 687.3125 169.765625 686.75 167.667969 C 686.917969 167.648438 687.074219 167.621094 687.238281 167.601562 C 687.589844 168.898438 687.917969 170.195312 688.242188 171.492188 Z M 690.640625 174.324219 C 690.679688 174.464844 690.707031 174.609375 690.742188 174.75 C 692.648438 174.675781 694.550781 174.628906 696.457031 174.609375 C 693.722656 174.90625 691.082031 175.226562 688.738281 175.519531 C 688.644531 175.191406 688.554688 174.859375 688.453125 174.527344 C 689.179688 174.445312 689.914062 174.390625 690.640625 174.324219 Z M 712.625 173.554688 C 712.21875 173.507812 711.816406 173.46875 711.410156 173.433594 C 715.328125 173.414062 719.253906 173.453125 723.175781 173.527344 C 727.46875 174.023438 731.746094 174.65625 735.984375 175.429688 L 736.355469 173.644531 C 736.742188 173.691406 737.125 173.726562 737.511719 173.78125 C 737.871094 172.15625 738.25 170.460938 738.636719 168.742188 C 738.773438 168.753906 738.921875 168.769531 739.058594 168.78125 C 738.71875 170.941406 738.257812 173.792969 737.925781 176.089844 C 737.429688 176.035156 736.574219 175.925781 736.574219 175.925781 C 730.042969 175.117188 723.496094 174.160156 716.910156 173.792969 C 715.484375 173.691406 714.050781 173.609375 712.613281 173.554688 Z M 737.667969 167.390625 L 737.863281 166.453125 C 737.625 166.414062 737.375 166.386719 737.125 166.359375 C 737.226562 165.917969 737.339844 165.488281 737.429688 165.0625 C 737.78125 165.082031 738.128906 165.101562 738.46875 165.128906 C 738.359375 165.910156 738.257812 166.691406 738.164062 167.484375 C 738 167.457031 737.824219 167.417969 737.660156 167.390625 Z M 687.25 164.53125 C 687.347656 164.53125 687.449219 164.511719 687.550781 164.503906 C 687.550781 164.511719 687.570312 164.613281 687.570312 164.632812 C 687.46875 164.648438 687.378906 164.667969 687.277344 164.6875 C 687.265625 164.632812 687.257812 164.585938 687.238281 164.53125 Z M 687 166.730469 C 686.78125 166.773438 686.558594 166.8125 686.335938 166.855469 C 686.238281 166.460938 686.125 166.066406 686.023438 165.671875 C 686.246094 165.644531 686.464844 165.617188 686.6875 165.589844 C 686.789062 165.964844 686.898438 166.351562 687 166.730469 Z M 730.15625 175.511719 C 732.296875 175.648438 734.441406 175.84375 736.566406 176.121094 C 736.566406 176.121094 737.421875 176.238281 737.910156 176.304688 C 737.863281 176.605469 737.824219 176.910156 737.78125 177.195312 C 735.257812 176.542969 732.710938 176 730.144531 175.511719 Z M 738.265625 176.136719 C 738.265625 176.136719 738.238281 176.136719 738.230469 176.136719 C 738.257812 176.046875 738.285156 175.945312 738.3125 175.851562 C 738.292969 175.945312 738.285156 176.054688 738.265625 176.148438 Z M 738.902344 167.613281 C 739.140625 166.5 739.378906 165.386719 739.601562 164.261719 C 738.957031 164.171875 738.3125 164.097656 737.667969 164.015625 C 737.667969 163.980469 737.6875 163.941406 737.695312 163.90625 C 738.367188 163.933594 739.050781 163.960938 739.71875 163.988281 C 739.589844 165.128906 739.453125 166.371094 739.316406 167.675781 C 739.175781 167.648438 739.039062 167.628906 738.902344 167.601562 Z M 738.902344 167.613281 "/></g><g clip-rule="nonzero" clip-path="url(#12241a3d49)"><path style=" stroke:none;fill-rule:nonzero;fill:#0c1225;fill-opacity:1;" d="M 606.855469 125.066406 C 609.910156 124.921875 612.632812 124.894531 615.273438 125.722656 C 615.8125 125.894531 616.371094 126.027344 616.894531 126.230469 C 621.074219 127.820312 622.601562 131.203125 622.847656 135.332031 C 623.015625 138.230469 622.273438 140.960938 620.859375 143.515625 C 618.636719 147.550781 615.542969 150.882812 612.394531 154.179688 C 611.542969 155.078125 610.695312 155.972656 609.664062 157.0625 C 610.375 157.46875 610.804688 157.800781 611.296875 157.96875 C 612.480469 158.375 613.671875 158.796875 614.890625 159.058594 C 620.785156 160.351562 625.945312 163.261719 630.941406 166.441406 C 633.671875 168.175781 635.847656 170.433594 636.554688 173.839844 C 637.15625 176.714844 636.472656 179.253906 634.941406 181.605469 C 634.011719 183.023438 632.886719 184.328125 631.8125 185.65625 C 630.359375 187.472656 628.496094 188.75 626.375 189.671875 C 622.207031 191.472656 618.035156 193.273438 613.859375 195.074219 C 613.445312 195.253906 613.023438 195.464844 612.582031 195.539062 C 609.453125 196.074219 606.324219 196.648438 603.171875 197.070312 C 598.097656 197.753906 593.015625 198.339844 587.933594 198.964844 C 587.59375 199.007812 587.253906 199.042969 586.910156 199.066406 C 583.5 199.3125 580.101562 199.617188 576.695312 199.777344 C 572.378906 199.980469 568.058594 200.097656 563.738281 200.183594 C 561.363281 200.234375 558.976562 200.15625 556.59375 200.113281 C 552.5 200.039062 548.398438 200.003906 544.3125 199.820312 C 541.820312 199.699219 539.339844 199.261719 536.847656 199.082031 C 529.539062 198.542969 522.480469 196.714844 515.445312 194.90625 C 510.953125 193.753906 506.554688 192.015625 502.335938 190.070312 C 499.488281 188.75 496.882812 186.789062 494.386719 184.824219 C 489.007812 180.589844 489.195312 172.851562 492.984375 168.300781 C 495.679688 165.054688 498.792969 162.195312 502.785156 160.515625 C 505.507812 159.363281 508.171875 158.054688 510.960938 157.113281 C 513.539062 156.25 516.253906 155.804688 518.902344 155.144531 C 519.648438 154.957031 520.367188 154.679688 521.226562 154.398438 C 521.152344 153.589844 521.195312 152.902344 521.007812 152.285156 C 520.121094 149.351562 519.242188 146.398438 518.21875 143.507812 C 515.78125 136.632812 514.234375 129.546875 513.050781 122.375 C 512.941406 121.699219 512.863281 121.023438 512.6875 120.363281 C 511.960938 117.640625 512.921875 115.136719 513.957031 112.769531 C 514.460938 111.609375 515.6875 110.644531 516.789062 109.894531 C 518.75 108.558594 520.796875 107.339844 523.207031 106.832031 C 525.203125 106.410156 527.121094 105.640625 529.109375 105.15625 C 531.089844 104.675781 533.101562 104.296875 535.121094 103.992188 C 538.605469 103.476562 542.097656 103.027344 545.597656 102.597656 C 547.746094 102.332031 549.902344 102.171875 552.050781 101.953125 C 553.75 101.785156 555.449219 101.597656 557.152344 101.429688 C 557.605469 101.378906 558.0625 101.269531 558.511719 101.308594 C 564.160156 101.800781 569.859375 101.472656 575.441406 102.917969 C 579.398438 103.941406 583.507812 104.347656 587.5 105.269531 C 592.40625 106.394531 597.097656 108.183594 601.335938 110.917969 C 603.222656 112.132812 604.871094 113.773438 606.425781 115.40625 C 606.957031 115.964844 607.09375 117.082031 607.09375 117.945312 C 607.09375 119.644531 606.855469 121.351562 606.757812 123.050781 C 606.722656 123.578125 606.808594 124.132812 606.855469 125.066406 Z M 603.863281 122.046875 C 603.289062 122.316406 602.976562 122.433594 602.695312 122.605469 C 598.417969 125.226562 594.046875 127.652344 589.234375 129.164062 C 587.0625 129.84375 584.878906 130.484375 582.699219 131.101562 C 576.523438 132.828125 570.292969 133.96875 563.847656 133.023438 C 563.070312 132.902344 562.257812 133.011719 561.453125 132.988281 C 551.992188 132.742188 542.605469 132.042969 533.5 129.097656 C 527.25 127.085938 521.386719 124.457031 516.375 120.160156 C 516.09375 119.921875 515.699219 119.8125 515.070312 119.507812 C 515.839844 126.679688 517.304688 133.308594 519.417969 139.8125 C 520.578125 143.382812 521.640625 146.976562 522.792969 150.542969 C 523.65625 153.242188 524.5 155.949219 525.515625 158.585938 C 526.320312 160.683594 527.359375 162.671875 528.179688 164.777344 C 529.574219 168.371094 531.402344 171.804688 533.203125 175.21875 C 535.25 179.109375 538.265625 181.671875 542.75 182.769531 C 547.753906 183.996094 552.796875 184.65625 557.894531 185.113281 C 559.246094 185.230469 560.625 185.089844 561.988281 185.003906 C 563.578125 184.902344 565.160156 184.757812 566.738281 184.570312 C 573.328125 183.785156 579.863281 182.847656 585.199219 178.347656 C 585.371094 178.203125 585.5625 178.050781 585.765625 177.976562 C 587.382812 177.382812 588.246094 176.066406 589.066406 174.679688 C 591.042969 171.328125 592.378906 167.691406 593.707031 164.058594 C 595.152344 160.109375 596.335938 156.066406 597.886719 152.160156 C 599.695312 147.582031 601.167969 142.941406 602.003906 138.097656 C 602.679688 134.179688 603.382812 130.265625 603.964844 126.332031 C 604.167969 125.023438 604.558594 123.660156 603.863281 122.046875 Z M 493.898438 172.664062 C 493.457031 173.257812 493.09375 173.5625 492.964844 173.949219 C 491.953125 176.96875 492.789062 179.652344 494.988281 181.738281 C 497.796875 184.410156 500.941406 186.617188 504.578125 188.167969 C 508.253906 189.730469 511.941406 191.195312 515.800781 192.242188 C 521.296875 193.730469 526.785156 195.355469 532.441406 195.996094 C 540.695312 196.945312 548.964844 197.867188 557.304688 197.65625 C 560.71875 197.570312 564.160156 197.703125 567.542969 197.300781 C 571.949219 196.765625 576.328125 196.105469 580.785156 196.046875 C 582.132812 196.03125 583.476562 195.640625 584.820312 195.386719 C 586.714844 195.03125 588.609375 194.636719 590.503906 194.304688 C 591.730469 194.085938 592.996094 194.050781 594.207031 193.757812 C 601.183594 192.097656 608.125 190.289062 615.121094 188.714844 C 620.53125 187.507812 624.902344 184.597656 628.996094 181.054688 C 630.6875 179.589844 631.703125 177.6875 632.785156 175.835938 C 633.730469 174.203125 633.578125 172.523438 632.292969 171.085938 C 631.542969 170.238281 630.722656 169.410156 629.800781 168.765625 C 623.363281 164.234375 616.21875 161.417969 608.480469 160.007812 C 606.738281 159.683594 605.4375 160.074219 604.125 161.242188 C 601.996094 163.125 599.871094 165.121094 597.4375 166.535156 C 595.464844 167.675781 594.375 169.113281 593.742188 171.144531 C 593.539062 171.792969 593.191406 172.394531 592.929688 173.019531 C 591.617188 176.105469 590.003906 178.941406 586.859375 180.546875 C 586.65625 180.648438 586.496094 180.816406 586.308594 180.953125 C 582.089844 184.054688 577.335938 185.867188 572.1875 186.617188 C 569.140625 187.058594 566.070312 187.347656 563.011719 187.566406 C 555.425781 188.105469 547.992188 187.101562 540.753906 184.859375 C 537.066406 183.71875 533.902344 181.707031 532.035156 178.164062 C 530.234375 174.738281 528.492188 171.277344 526.808594 167.792969 C 526.21875 166.570312 525.558594 165.410156 524.789062 164.285156 C 518.386719 163.804688 512.457031 165.214844 506.757812 167.703125 C 505.644531 168.191406 504.601562 169.011719 503.722656 169.875 C 501.230469 172.320312 501.09375 175.464844 503.375 178.128906 C 504.171875 179.058594 505.1875 179.855469 506.226562 180.503906 C 507.765625 181.46875 509.429688 182.222656 511.011719 183.125 C 511.554688 183.429688 511.714844 183.988281 511.460938 184.605469 C 511.214844 185.207031 510.742188 185.554688 510.132812 185.402344 C 508.925781 185.097656 507.714844 184.75 506.546875 184.320312 C 501.753906 182.558594 498.269531 179.210938 495.4375 175.074219 C 494.945312 174.375 494.496094 173.613281 493.898438 172.664062 Z M 522.191406 121.34375 C 528.476562 119.375 534.570312 118.121094 540.828125 117.5625 C 545.699219 117.132812 550.554688 116.566406 555.410156 116.058594 C 556.3125 115.964844 557.21875 115.746094 558.113281 115.789062 C 563.105469 115.992188 568.101562 115.855469 573.074219 116.667969 C 578.113281 117.496094 583.179688 118.164062 588.246094 118.78125 C 591.753906 119.203125 595.1875 119.949219 598.585938 120.878906 C 600.152344 121.300781 600.851562 120.953125 601.5625 119.449219 C 601.902344 118.730469 602.230469 118.003906 602.511719 117.257812 C 603.050781 115.832031 602.765625 114.535156 601.632812 113.539062 C 600.871094 112.871094 600.007812 112.269531 599.101562 111.820312 C 594.714844 109.632812 590.191406 107.8125 585.320312 106.984375 C 583.746094 106.714844 582.164062 106.503906 580.617188 106.148438 C 574.164062 104.652344 567.636719 103.761719 561 104.015625 C 556.109375 104.203125 551.222656 104.5 546.351562 104.921875 C 542.621094 105.25 538.910156 105.816406 535.207031 106.359375 C 533.304688 106.636719 531.390625 107.011719 529.53125 107.507812 C 526.902344 108.21875 524.28125 108.996094 521.71875 109.917969 C 520.019531 110.535156 518.410156 111.390625 517.035156 112.652344 C 516.035156 113.5625 515.882812 114.59375 516.28125 115.730469 C 516.5 116.355469 516.949219 116.902344 517.339844 117.453125 C 518.574219 119.179688 520.484375 120.015625 522.191406 121.34375 Z M 599.667969 154.875 C 606.695312 151 611.332031 145.894531 614.359375 139.3125 C 614.722656 138.519531 614.816406 137.578125 614.890625 136.691406 C 614.949219 135.957031 614.519531 135.347656 613.816406 135.109375 C 611.136719 134.230469 608.464844 134.257812 605.886719 135.457031 C 605.429688 135.667969 605.003906 136.183594 604.8125 136.660156 C 604.523438 137.378906 604.40625 138.179688 604.285156 138.957031 C 603.695312 142.671875 602.824219 146.296875 601.429688 149.792969 C 600.851562 151.253906 600.40625 152.75 599.667969 154.875 Z M 605.546875 132.3125 C 606.460938 132.21875 606.96875 132.285156 607.339844 132.101562 C 609.546875 130.992188 611.789062 131.5 614.003906 131.957031 C 617.242188 132.632812 618.644531 134.417969 618.613281 137.730469 C 618.601562 138.398438 618.433594 139.078125 618.265625 139.726562 C 618.011719 140.683594 617.691406 141.621094 617.335938 142.773438 C 617.757812 142.535156 617.976562 142.484375 618.085938 142.339844 C 618.300781 142.078125 618.476562 141.773438 618.601562 141.46875 C 619.871094 138.398438 619.828125 135.28125 618.882812 132.160156 C 618.578125 131.152344 617.875 130.410156 616.929688 129.894531 C 613.511719 128.042969 609.953125 127.464844 605.960938 128.53125 C 605.835938 129.707031 605.714844 130.789062 605.546875 132.3125 Z M 605.546875 132.3125 "/></g><path style=" stroke:none;fill-rule:nonzero;fill:#0c1225;fill-opacity:1;" d="M 489.90625 217.8125 L 490.175781 217.746094 L 490.125 217.964844 Z M 489.90625 217.8125 "/><path style=" stroke:none;fill-rule:nonzero;fill:#0c1225;fill-opacity:1;" d="M 610.484375 165.375 C 611.796875 164.363281 612.996094 163.921875 614.433594 164.429688 C 617.113281 165.367188 619.839844 166.214844 622.25 167.785156 C 622.816406 168.160156 623.40625 168.511719 623.921875 168.953125 C 627.1875 171.71875 627.347656 175.929688 624.058594 178.703125 C 622.433594 180.074219 620.488281 181.171875 618.527344 182.011719 C 612.878906 184.429688 606.96875 186.101562 601.046875 187.726562 C 599.855469 188.054688 598.59375 188.234375 597.359375 188.277344 C 596.753906 188.292969 596.09375 187.902344 595.507812 187.589844 C 595.070312 187.355469 595.195312 186.3125 595.644531 186.136719 C 595.957031 186.019531 596.285156 185.925781 596.617188 185.867188 C 602.570312 184.691406 608.125 182.398438 613.582031 179.820312 C 615.601562 178.863281 617.132812 177.375 618.375 175.574219 C 619.753906 173.570312 619.515625 171.429688 617.730469 169.757812 C 616.558594 168.648438 615.222656 167.835938 613.605469 167.492188 C 612.84375 167.328125 612.050781 167.117188 611.390625 166.738281 C 610.984375 166.492188 610.796875 165.882812 610.484375 165.375 Z M 610.484375 165.375 "/></g></svg>